<?xml version="1.0" encoding="UTF-8" standalone="no"?>
<!-- Creator: CorelDRAW X7 -->

<svg
   xmlns:dc="http://purl.org/dc/elements/1.1/"
   xmlns:cc="http://creativecommons.org/ns#"
   xmlns:rdf="http://www.w3.org/1999/02/22-rdf-syntax-ns#"
   xmlns:svg="http://www.w3.org/2000/svg"
   xmlns="http://www.w3.org/2000/svg"
   xmlns:sodipodi="http://sodipodi.sourceforge.net/DTD/sodipodi-0.dtd"
   xmlns:inkscape="http://www.inkscape.org/namespaces/inkscape"
   xml:space="preserve"
   width="210mm"
   height="297mm"
   version="1.1"
   style="shape-rendering:geometricPrecision; text-rendering:geometricPrecision; image-rendering:optimizeQuality; fill-rule:evenodd; clip-rule:evenodd"
   viewBox="0 0 21000 29700"
   id="svg36"
   sodipodi:docname="HAPTICCASE-3MM.svg"
   inkscape:version="0.92.2 5c3e80d, 2017-08-06"><metadata
     id="metadata40"><rdf:RDF><cc:Work
         rdf:about=""><dc:format>image/svg+xml</dc:format><dc:type
           rdf:resource="http://purl.org/dc/dcmitype/StillImage" /></cc:Work></rdf:RDF></metadata><sodipodi:namedview
     pagecolor="#ffffff"
     bordercolor="#666666"
     borderopacity="1"
     objecttolerance="10"
     gridtolerance="10"
     guidetolerance="10"
     inkscape:pageopacity="0"
     inkscape:pageshadow="2"
     inkscape:window-width="1440"
     inkscape:window-height="802"
     id="namedview38"
     showgrid="false"
     inkscape:zoom="2.3219944"
     inkscape:cx="349.79739"
     inkscape:cy="695.50414"
     inkscape:window-x="0"
     inkscape:window-y="1"
     inkscape:window-maximized="1"
     inkscape:current-layer="Layer_x0020_1" /><defs
     id="defs4"><inkscape:perspective
       sodipodi:type="inkscape:persp3d"
       inkscape:vp_x="0 : 14850 : 1"
       inkscape:vp_y="0 : 1000 : 0"
       inkscape:vp_z="21000 : 14850 : 1"
       inkscape:persp3d-origin="10500 : 9900 : 1"
       id="perspective905" /><style
       type="text/css"
       id="style2"><![CDATA[
    .str1 {stroke:#2B2A29;stroke-width:20}
    .str0 {stroke:black;stroke-width:25.4}
    .fil0 {fill:none}
   ]]></style></defs><g
     id="Layer_x0020_1"><metadata
       id="CorelCorpID_0Corel-Layer" /><g
       id="_270702480"><polygon
         class="fil0 str0"
         points="-2500,9850 -1125,9850 -1125,10150 250,10150 250,9850 1250,9850 1250,10150 2250,10150 2250,9850 3250,9850 3250,10150 4250,10150 4250,9850 5250,9850 5250,10150 6625,10150 6625,9850 8000,9850 8000,10850 7700,10850 7700,11850 8000,11850 8000,12850 7700,12850 7700,13850 8000,13850 8000,14850 6625,14850 6625,14550 5250,14550 5250,14850 4250,14850 4250,14550 3250,14550 3250,14850 2250,14850 2250,14550 1250,14550 1250,14850 250,14850 250,14550 -1125,14550 -1125,14850 -2500,14850 -2500,13850 -2200,13850 -2200,12850 -2500,12850 -2500,11850 -2200,11850 -2200,10850 -2500,10850 "
         id="polygon7" /></g><g
       id="_270702456"><polygon
         class="fil0 str0"
         points="8000,9850 9375,9850 9375,10150 10750,10150 10750,9850 11750,9850 11750,10150 12750,10150 12750,9850 13750,9850 13750,10150 14750,10150 14750,9850 15750,9850 15750,10150 17125,10150 17125,9850 18500,9850 18500,10850 18200,10850 18200,11850 18500,11850 18500,12850 18200,12850 18200,13850 18500,13850 18500,14850 17125,14850 17125,14550 15750,14550 15750,14850 14750,14850 14750,14550 13750,14550 13750,14850 12750,14850 12750,14550 11750,14550 11750,14850 10750,14850 10750,14550 9375,14550 9375,14850 8000,14850 8000,13850 8300,13850 8300,12850 8000,12850 8000,11850 8300,11850 8300,10850 8000,10850 "
         id="polygon10" /></g><g
       id="_270702264"><polygon
         class="fil0 str0"
         points="18800,9850 19500,9850 19500,10150 20500,10150 20500,9850 21500,9850 21500,10150 22500,10150 22500,9850 23200,9850 23200,10850 23500,10850 23500,11850 23200,11850 23200,12850 23500,12850 23500,13850 23200,13850 23200,14850 22500,14850 22500,14550 21500,14550 21500,14850 20500,14850 20500,14550 19500,14550 19500,14850 18800,14850 18800,13850 18500,13850 18500,12850 18800,12850 18800,11850 18500,11850 18500,10850 18800,10850 "
         id="polygon13" /></g><g
       id="_270702984"><polygon
         class="fil0 str0"
         points="18800,14850 19500,14850 19500,15150 20500,15150 20500,14850 21500,14850 21500,15150 22500,15150 22500,14850 23200,14850 23200,15850 23500,15850 23500,16850 23200,16850 23200,17850 23500,17850 23500,18850 23200,18850 23200,19850 22500,19850 22500,19550 21500,19550 21500,19850 20500,19850 20500,19550 19500,19550 19500,19850 18800,19850 18800,18850 18500,18850 18500,17850 18800,17850 18800,16850 18500,16850 18500,15850 18800,15850 "
         id="polygon16" /></g><g
       id="_270703080"><polygon
         class="fil0 str0"
         points="-2200,15150 -1125,15150 -1125,14850 250,14850 250,15150 1250,15150 1250,14850 2250,14850 2250,15150 3250,15150 3250,14850 4250,14850 4250,15150 5250,15150 5250,14850 6625,14850 6625,15150 7700,15150 7700,15850 8000,15850 8000,16850 7700,16850 7700,17850 8000,17850 8000,18850 7700,18850 7700,19550 6625,19550 6625,19850 5250,19850 5250,19550 4250,19550 4250,19850 3250,19850 3250,19550 2250,19550 2250,19850 1250,19850 1250,19550 250,19550 250,19850 -1125,19850 -1125,19550 -2200,19550 -2200,18850 -2500,18850 -2500,17850 -2200,17850 -2200,16850 -2500,16850 -2500,15850 -2200,15850 "
         id="polygon19" /></g><g
       id="_270703416"><polygon
         class="fil0 str0"
         points="8300,15150 9375,15150 9375,14850 10750,14850 10750,15150 11750,15150 11750,14850 12750,14850 12750,15150 13750,15150 13750,14850 14750,14850 14750,15150 15750,15150 15750,14850 17125,14850 17125,15150 18200,15150 18200,15850 18500,15850 18500,16850 18200,16850 18200,17850 18500,17850 18500,18850 18200,18850 18200,19550 17125,19550 17125,19850 15750,19850 15750,19550 14750,19550 14750,19850 13750,19850 13750,19550 12750,19550 12750,19850 11750,19850 11750,19550 10750,19550 10750,19850 9375,19850 9375,19550 8300,19550 8300,18850 8000,18850 8000,17850 8300,17850 8300,16850 8000,16850 8000,15850 8300,15850 "
         id="polygon22" /></g><circle
       class="fil0 str1"
       cx="9123"
       cy="10887.869"
       id="circle25"
       style="fill:none;stroke:#2b2a29;stroke-width:15.3256712"
       r="392.33716" /><rect
       class="fil0 str1"
       x="11500"
       y="13970"
       width="1000"
       height="500"
       id="rect27" /><ellipse
       class="fil0 str1"
       cx="2766.7922"
       cy="12513.169"
       rx="3401.0037"
       ry="1183.9249"
       id="ellipse29"
       style="fill:none;stroke:#2b2a29;stroke-width:16.4777298" /><rect
       class="fil0 str1"
       x="22678.713"
       y="-13846.246"
       width="384.88165"
       height="2984.8816"
       id="rect31"
       style="fill:none;stroke:#2b2a29;stroke-width:15.11837482"
       transform="scale(1,-1)" /><rect
       class="fil0 str1"
       x="22670.576"
       y="15848.733"
       width="384.88165"
       height="2984.8816"
       id="rect33"
       style="fill:none;stroke:#2b2a29;stroke-width:15.11837482" /><rect
       style="fill:none;fill-opacity:1;stroke:none;stroke-width:10;stroke-miterlimit:4;stroke-dasharray:none;stroke-opacity:1"
       id="rect921"
       width="384.88086"
       height="2984.8809"
       x="21098.113"
       y="15837.339" /><rect
       style="fill:none;stroke:#2b2a29;stroke-width:15.11837482"
       id="rect943"
       height="2984.8816"
       width="384.88165"
       y="-14738.364"
       x="15291.403"
       class="fil0 str1"
       transform="rotate(90)" /><rect
       transform="rotate(90)"
       class="fil0 str1"
       x="15291.402"
       y="-4243.8838"
       width="384.88165"
       height="2984.8816"
       id="rect945"
       style="fill:none;stroke:#2b2a29;stroke-width:15.11837482" /></g></svg>